<svg width="49" height="37" viewBox="0 0 49 37" fill="none" xmlns="http://www.w3.org/2000/svg">
<path d="M11.0351 0L29.5351 -2.42598e-06C39.7523 -3.76581e-06 48.0351 8.28273 48.0351 18.5C48.0351 28.7173 39.7523 37 29.5351 37L11.0351 37L11.0351 0Z" fill="#FCFCFC"/>
<path d="M11.0351 29.2106C17.1296 29.2106 22.0702 24.27 22.0702 18.1755C22.0702 12.081 17.1296 7.1404 11.0351 7.1404L11.0351 29.2106Z" fill="#5925DC"/>
<path d="M11.0351 29.2106C4.94058 29.2106 7.48758e-07 24.27 4.82359e-07 18.1755C2.15959e-07 12.081 4.94058 7.1404 11.0351 7.1404L11.0351 29.2106Z" fill="white"/>
<path d="M25.9649 18.5C25.9649 15.4528 28.4352 12.9825 31.4824 12.9825C34.5297 12.9825 37 15.4528 37 18.5C37 21.5473 34.5297 24.0176 31.4824 24.0176C28.4352 24.0176 25.9649 21.5473 25.9649 18.5Z" fill="#5925DC"/>
</svg>
