<svg fill="none" height="29" viewBox="0 0 38 29" width="38" xmlns="http://www.w3.org/2000/svg"><path d="m8.5625-.00000381 14.3552-.00000189c7.9281-.00000104 14.3552 6.4270357 14.3552 14.3552057 0 7.9281-6.4271 14.3552-14.3552 14.3552h-14.3552z" fill="#5925dc"/><path d="m8.56225 22.6661c4.72905 0 8.56275-3.8336 8.56275-8.5627 0-4.72909-3.8337-8.56276-8.56275-8.56276z" fill="#fff"/><path d="m8.56275 22.6661c-4.72908 0-8.56274942-3.8336-8.56274963-8.5627-.0000002-4.72909 3.83366963-8.56276 8.56274963-8.56276z" fill="#5925dc"/><path d="m20.1484 14.3552c0-2.3645 1.9169-4.2814 4.2814-4.2814s4.2814 1.9169 4.2814 4.2814-1.9169 4.2814-4.2814 4.2814-4.2814-1.9169-4.2814-4.2814z" fill="#fff"/></svg>